<svg width="500" height="200" viewBox="0 0 500 200" xmlns="http://www.w3.org/2000/svg">
  <!-- Background -->
  <rect width="100%" height="100%" fill="black"/>

  <!-- M (White base) -->
  <path d="M50 150 L50 50 L120 110 L190 50 L190 150 L150 150 L150 100 L120 130 L90 100 L90 150 Z"
        fill="white"/>

  <!-- M (Green top chevron) -->
  <path d="M50 50 L120 110 L190 50 L170 50 L120 90 L70 50 Z"
        fill="#00C853"/>

  <!-- R with hole -->
  <path fill="#00C853" fill-rule="evenodd"
        d="
        M230 150 L230 50 L320 50 
        Q370 50 370 90 
        Q370 120 340 130 
        L380 150 L330 150 
        L300 120 L280 120 
        L280 150 Z

        M270 80 
        Q300 60 330 80 
        Q330 105 300 110 
        Q270 105 270 80 Z
        "/>

  <!-- Dot -->
  <circle cx="410" cy="140" r="8" fill="#00C853"/>
</svg>